<svg xmlns="http://www.w3.org/2000/svg" xmlns:xlink="http://www.w3.org/1999/xlink" preserveAspectRatio="xMidYMid" width="352" height="156" viewBox="0 0 352 156">
  <defs>
    <style>

      .cls-3 {
        fill: #5dbbe8;
      }

      .cls-4 {
        fill: #fdd200;
      }

      .cls-5 {
        fill: #005ca4;
      }
    </style>
  </defs>
  <g id="logo_vectosvg">
    <path d="M173.846,18.193 C173.252,21.105 173.337,24.553 173.099,27.349 C172.626,32.927 174.008,39.891 175.180,44.444 C175.815,46.903 176.009,50.315 176.345,52.453 C176.264,55.504 176.175,58.562 176.094,61.609 C176.409,67.862 174.707,74.195 173.099,80.011 C172.933,81.647 172.767,83.280 172.601,84.921 C172.298,87.185 172.690,89.767 173.184,91.619 C173.895,94.324 173.846,96.533 174.433,99.230 C174.740,100.649 175.172,103.461 175.011,104.705 C174.497,108.689 173.398,111.971 172.848,115.824 C172.387,119.066 173.002,123.078 172.848,126.292 C172.747,128.493 173.034,130.980 173.349,132.751 C173.697,134.710 173.483,137.975 174.178,139.378 C174.178,139.378 174.178,140.355 174.178,140.355 C171.833,140.796 168.478,140.419 166.029,139.950 C163.725,139.755 161.420,139.564 159.120,139.378 C157.871,139.267 156.626,139.159 155.377,139.048 C152.746,139.310 148.473,138.849 145.142,139.616 C142.393,140.252 138.198,141.737 135.158,141.499 C131.580,141.221 127.781,140.272 124.260,139.616 C122.328,139.263 120.011,139.668 118.265,140.109 C117.457,140.315 116.094,140.931 115.189,140.601 C115.189,140.601 115.023,140.601 115.023,140.601 C115.326,137.221 118.318,132.672 119.854,130.217 C123.043,125.092 127.938,119.932 132.660,116.313 C134.131,115.172 135.598,114.024 137.074,112.880 C139.649,110.544 142.389,108.228 145.142,106.091 C146.116,105.340 146.901,104.228 147.721,103.314 C152.059,98.499 155.009,92.811 158.122,86.713 C158.926,84.833 159.735,82.950 160.531,81.071 C160.996,80.233 161.784,79.391 162.281,78.537 C162.839,77.337 163.389,76.137 163.947,74.942 C165.212,72.661 167.019,70.306 169.024,68.724 C170.406,67.636 172.913,66.154 172.266,63.898 C171.870,62.527 170.641,62.209 169.521,61.530 C165.762,59.238 156.428,60.175 152.552,61.693 C148.214,63.385 144.443,65.523 140.736,67.827 C139.240,68.752 136.613,70.838 134.992,71.342 C133.941,71.672 132.025,71.334 131.164,71.180 C129.361,71.072 127.558,70.961 125.755,70.850 C124.009,70.715 122.263,70.580 120.513,70.441 C119.389,70.635 117.416,70.564 116.272,70.933 C114.340,71.557 112.719,72.737 110.698,73.142 C110.281,73.086 109.865,73.031 109.449,72.979 C107.868,72.796 105.289,72.304 103.543,72.649 C101.643,73.027 99.800,73.952 98.050,74.612 C96.194,75.295 94.331,75.978 92.479,76.662 C91.752,76.952 89.055,78.283 88.146,78.048 C78.388,75.502 71.124,69.567 63.270,65.050 C61.135,63.874 59.001,62.706 56.863,61.530 C52.998,58.702 48.705,56.445 44.469,53.926 C42.747,52.894 41.025,51.857 39.307,50.820 C36.768,49.481 33.906,48.675 31.404,47.221 C31.598,44.579 31.792,41.933 31.986,39.287 C31.663,32.637 32.087,25.343 30.741,18.681 C30.034,15.209 29.840,12.031 28.906,9.032 C28.769,8.408 28.635,7.780 28.494,7.153 C28.522,6.962 28.546,6.771 28.575,6.581 C36.247,6.724 44.772,9.147 52.703,7.645 C54.846,7.236 58.261,6.871 59.527,5.683 C61.180,5.703 62.793,6.199 64.187,6.581 C66.681,7.097 69.179,7.613 71.674,8.130 C75.352,8.980 78.436,8.666 82.325,9.361 C82.325,9.361 86.153,9.361 86.153,9.361 C87.390,9.544 90.110,9.850 91.808,9.524 C95.277,8.861 98.575,8.936 101.708,8.054 C104.307,7.323 107.258,6.751 110.031,6.171 C111.138,6.092 112.250,6.009 113.358,5.929 C114.384,5.901 115.411,5.869 116.438,5.846 C117.962,6.060 119.486,6.279 121.014,6.501 C123.573,7.192 125.929,8.217 129.001,8.547 C133.003,8.972 137.983,7.911 141.399,6.994 C142.971,6.565 145.025,6.549 146.391,6.255 C148.299,5.842 149.439,6.541 150.551,6.994 C151.856,7.371 153.158,7.752 154.460,8.130 C158.385,9.246 166.348,8.829 170.269,7.971 C171.943,7.609 173.976,7.792 175.261,6.994 C175.427,7.018 175.597,7.045 175.758,7.073 C175.205,9.826 174.655,12.579 174.097,15.332 C174.012,16.286 173.935,17.239 173.846,18.193 ZM90.312,26.045 C89.613,25.822 87.899,25.227 87.151,25.477 C85.409,25.513 86.007,24.694 85.736,23.347 C85.623,22.422 85.514,21.496 85.405,20.571 C85.348,20.102 85.562,18.922 85.320,18.362 C85.296,17.627 85.267,16.892 85.235,16.153 C84.479,16.364 83.974,17.110 83.323,17.460 C81.597,18.390 78.278,19.303 77.086,20.654 C76.281,20.475 76.007,18.954 75.671,18.282 C74.669,16.320 73.674,14.357 72.672,12.391 C72.672,12.391 72.340,12.391 72.340,12.391 C71.798,13.007 70.962,13.396 70.262,13.865 C68.233,15.212 65.771,17.071 64.522,19.184 C62.048,17.953 59.583,16.725 57.113,15.502 C56.979,16.320 56.838,17.134 56.697,17.953 C56.312,19.534 55.920,21.115 55.532,22.696 C55.480,23.649 55.423,24.603 55.367,25.560 C52.541,26.402 49.711,27.249 46.882,28.095 C46.882,28.095 46.712,28.095 46.712,28.095 C46.757,31.384 49.594,35.118 51.126,37.248 C51.627,37.955 52.448,38.515 52.788,39.377 C51.761,43.846 50.738,48.315 49.711,52.789 C49.740,52.896 49.768,53.003 49.792,53.110 C52.428,52.765 55.456,51.116 58.366,51.398 C59.195,51.478 60.169,51.251 60.775,51.561 C61.624,51.986 61.951,53.381 62.356,54.255 C63.520,56.575 64.688,58.891 65.852,61.207 C66.883,61.028 67.615,59.951 68.350,59.411 C69.866,58.283 71.993,57.190 73.173,55.728 C74.402,55.887 75.166,56.869 76.087,57.369 C78.133,58.470 80.122,59.336 82.244,60.472 C82.684,60.484 82.911,60.436 83.161,60.309 C83.291,58.040 84.184,56.289 84.657,54.342 C84.710,53.226 84.766,52.105 84.823,50.989 C85.267,50.417 86.557,50.349 87.321,50.087 C89.673,49.281 92.192,48.256 94.722,47.716 C94.646,45.014 92.341,42.122 91.145,40.275 C90.599,39.433 90.377,38.308 89.645,37.657 C89.746,36.465 91.274,35.730 91.978,35.043 C93.372,33.684 96.889,30.331 97.467,28.504 C97.499,28.448 97.524,28.393 97.552,28.337 C95.074,27.479 92.782,26.843 90.312,26.045 ZM157.788,51.478 C156.050,48.940 154.239,46.377 152.796,43.549 C149.259,36.585 149.878,27.563 152.299,19.916 C152.869,18.112 152.909,15.784 153.880,14.274 C153.851,14.139 153.827,13.996 153.795,13.865 C153.795,13.865 153.463,13.865 153.463,13.865 C152.841,14.306 151.693,14.219 150.884,14.437 C149.142,14.954 147.388,15.474 145.641,15.991 C139.081,18.716 132.682,22.331 129.998,28.826 C127.956,33.784 128.369,39.429 130.503,43.708 C131.890,46.496 133.058,48.733 135.079,50.823 C135.536,51.299 136.178,51.589 136.655,52.050 C137.407,52.773 138.434,53.715 139.400,54.175 C141.300,55.081 143.418,55.137 145.561,55.729 C147.917,56.380 152.166,56.885 154.878,56.221 C156.713,55.769 158.500,55.057 160.202,54.585 C159.951,53.373 158.443,52.428 157.788,51.478 ZM29.656,134.146 C29.935,128.751 30.210,123.353 30.489,117.962 C30.461,115.940 30.433,113.922 30.404,111.907 C30.348,110.461 30.295,109.019 30.239,107.573 C30.089,106.715 29.697,105.281 29.907,104.467 C34.208,106.068 38.444,108.173 42.551,110.108 C45.389,111.443 48.360,112.086 51.206,113.461 C60.628,118.021 71.134,125.824 69.178,139.791 C69.150,139.819 69.121,139.843 69.093,139.871 C66.821,139.652 64.545,139.434 62.274,139.215 C60.665,138.973 58.777,138.647 57.112,138.731 C53.753,138.890 50.393,139.970 47.713,139.462 C42.555,138.488 33.881,137.352 29.822,140.280 C29.822,140.280 29.406,140.280 29.406,140.280 C29.434,138.508 29.462,136.736 29.487,134.965 C29.547,134.694 29.600,134.420 29.656,134.146 Z" id="path-1" class="cls-3" fill-rule="evenodd"/>
    <path d="M147.486,53.125 C143.265,52.296 140.112,51.190 137.895,48.425 C136.646,46.871 135.529,44.967 134.754,42.980 C134.184,41.525 133.774,39.714 133.762,38.031 C133.694,29.537 137.048,24.937 142.277,21.539 C143.465,20.770 144.911,20.473 146.164,19.724 C146.245,19.756 146.329,19.776 146.409,19.808 C145.943,21.623 145.474,23.438 145.004,25.249 C143.682,30.783 144.666,37.675 146.409,42.159 C147.446,44.823 148.944,47.327 150.462,49.583 C150.984,50.357 152.337,51.395 152.442,52.220 C151.956,52.997 148.956,53.418 147.486,53.125 ZM103.265,81.631 C100.650,81.379 98.012,81.736 95.489,81.219 C95.028,81.167 94.566,81.119 94.100,81.066 C94.100,81.066 93.791,81.050 93.791,81.050 C94.240,80.277 95.586,79.880 96.353,79.400 C97.959,78.394 102.397,75.429 105.197,75.938 C106.908,76.254 108.787,77.268 110.655,77.011 C112.530,76.751 113.651,75.785 115.089,75.204 C116.105,74.988 117.073,74.756 118.097,74.535 C119.225,74.559 120.350,74.595 121.482,74.619 C123.743,74.892 126.005,75.168 128.266,75.445 C128.266,75.445 128.258,75.453 128.254,75.453 C128.254,75.453 128.310,75.445 128.310,75.445 C128.310,75.445 128.310,75.609 128.310,75.609 C126.495,76.495 124.635,77.516 122.772,78.414 C118.201,80.606 108.502,82.132 103.265,81.631 ZM80.664,29.666 C83.335,29.990 86.010,30.323 88.684,30.652 C87.829,32.743 85.238,33.757 84.050,35.600 C83.748,36.077 83.367,37.067 83.556,37.748 C84.905,40.416 86.259,43.081 87.608,45.750 C87.580,45.806 87.556,45.858 87.528,45.914 C86.022,46.411 80.813,44.892 79.262,45.994 C79.286,46.459 79.315,46.928 79.343,47.396 C79.395,49.813 79.451,52.237 79.507,54.657 C79.507,54.657 79.507,55.398 79.507,55.398 C78.937,55.238 78.764,54.777 78.351,54.489 C76.764,53.379 75.210,52.365 73.720,51.191 C73.198,50.582 72.676,49.981 72.150,49.376 C71.933,49.175 70.796,50.394 70.579,50.614 C69.129,52.064 67.579,53.651 66.447,55.398 C65.708,55.222 65.583,53.980 65.290,53.335 C64.298,51.383 63.302,49.428 62.314,47.481 C59.213,47.509 56.486,48.811 53.631,48.795 C53.908,46.170 54.956,43.882 55.784,41.622 C56.045,40.901 56.715,39.751 56.691,39.070 C56.418,37.712 53.406,32.587 52.474,31.894 C52.916,30.908 57.290,30.656 58.511,30.079 C58.511,30.079 58.675,30.079 58.675,30.079 C58.631,27.747 59.109,26.512 59.587,24.629 C59.639,24.084 59.695,23.535 59.748,22.986 C59.844,22.882 60.736,23.579 60.993,23.728 C61.707,24.132 62.430,24.685 63.222,25.042 C63.884,25.266 64.543,25.483 65.206,25.707 C66.997,25.579 68.563,22.169 69.764,21.171 C69.764,21.147 69.832,21.115 69.832,21.087 C71.314,22.009 71.411,25.366 73.306,26.036 C73.848,26.216 74.832,25.731 75.290,25.543 C76.796,24.922 79.327,23.820 80.335,22.738 C80.592,22.794 80.576,22.814 80.748,22.902 C80.704,23.463 80.784,24.465 80.664,24.962 C80.475,25.763 79.857,27.085 80.166,28.263 C80.335,28.728 80.499,29.197 80.664,29.666 ZM95.045,85.006 C95.511,84.858 96.595,85.195 97.106,85.167 C99.812,85.199 102.507,85.227 105.214,85.255 C107.006,85.115 108.793,84.978 110.588,84.842 C115.187,83.953 119.620,83.452 123.484,81.957 C124.657,81.500 125.962,81.364 126.954,80.719 C127.075,81.268 126.215,82.033 125.882,82.446 C124.717,83.877 123.436,85.099 121.829,86.076 C116.990,89.037 112.118,91.710 104.467,89.542 C102.222,88.909 99.841,87.895 97.857,86.822 C96.949,86.329 95.969,85.411 94.877,85.167 C94.997,84.990 94.860,85.123 95.045,85.006 Z" id="path-2" class="cls-4" fill-rule="evenodd"/>
    <path d="M351.467,138.564 C351.467,138.564 346.247,138.564 346.247,138.564 C346.247,138.564 343.271,133.886 343.271,133.886 C343.271,133.886 340.092,138.564 340.092,138.564 C340.092,138.564 335.147,138.564 335.147,138.564 C335.147,138.564 340.852,130.556 340.852,130.556 C340.852,130.556 335.525,122.723 335.525,122.723 C335.525,122.723 340.749,122.723 340.749,122.723 C340.749,122.723 343.446,127.126 343.446,127.126 C343.446,127.126 346.279,122.723 346.279,122.723 C346.279,122.723 351.189,122.723 351.189,122.723 C351.189,122.723 345.762,130.313 345.762,130.313 C345.762,130.313 351.467,138.564 351.467,138.564 ZM344.957,106.713 C346.457,106.713 347.810,106.290 349.222,105.536 C349.222,105.536 349.819,107.163 349.819,107.163 C348.232,107.913 346.429,108.216 344.719,108.216 C340.573,108.216 338.862,104.966 338.862,101.141 C338.862,97.951 340.123,93.799 344.595,93.799 C349.131,93.799 350.424,97.018 350.424,101.684 C350.424,101.684 340.963,101.684 340.963,101.684 C341.054,104.603 342.105,106.713 344.957,106.713 ZM348.470,100.148 C348.411,96.866 347.209,95.331 344.627,95.331 C342.494,95.331 341.082,96.990 340.931,100.148 C340.931,100.148 348.470,100.148 348.470,100.148 ZM329.285,59.827 C314.838,59.827 307.346,53.235 307.346,39.982 C307.346,39.982 307.346,8.719 307.346,8.719 C307.346,8.719 318.964,8.719 318.964,8.719 C318.964,8.719 318.964,39.213 318.964,39.213 C318.964,49.558 324.546,50.862 329.285,50.862 C334.099,50.862 338.611,48.026 338.611,39.213 C338.611,39.213 338.611,8.719 338.611,8.719 C338.611,8.719 350.229,8.719 350.229,8.719 C350.229,8.719 350.229,40.134 350.229,40.134 C350.229,53.311 342.355,59.827 329.285,59.827 ZM281.664,37.223 C281.664,37.223 264.389,37.223 264.389,37.223 C264.389,37.223 264.389,58.292 264.389,58.292 C264.389,58.292 252.767,58.292 252.767,58.292 C252.767,58.292 252.767,8.719 252.767,8.719 C252.767,8.719 264.389,8.719 264.389,8.719 C264.389,8.719 264.389,28.182 264.389,28.182 C264.389,28.182 281.664,28.182 281.664,28.182 C281.664,28.182 281.664,8.719 281.664,8.719 C281.664,8.719 293.282,8.719 293.282,8.719 C293.282,8.719 293.282,58.292 293.282,58.292 C293.282,58.292 281.664,58.292 281.664,58.292 C281.664,58.292 281.664,37.223 281.664,37.223 ZM228.537,50.862 C232.818,50.862 235.647,49.251 239.621,47.644 C239.621,47.644 243.139,57.375 243.139,57.375 C238.782,58.906 234.732,59.827 228.768,59.827 C211.341,59.827 204.919,49.482 204.919,33.546 C204.919,19.755 210.653,7.647 228.998,7.647 C233.275,7.647 238.857,8.488 242.601,9.716 C242.601,9.716 239.088,19.448 239.088,19.448 C235.877,18.068 232.667,16.612 228.998,16.612 C220.436,16.612 216.919,21.976 216.919,33.466 C216.919,45.650 220.130,50.862 228.537,50.862 ZM181.087,61.415 C180.705,63.437 180.761,65.818 180.351,67.736 C180.188,69.240 180.025,70.743 179.862,72.247 C178.978,76.422 178.970,80.578 178.143,85.136 C177.805,87.003 178.596,89.184 178.962,90.800 C179.261,93.372 179.563,95.944 179.862,98.517 C180.013,99.665 179.953,101.420 179.778,102.620 C179.806,103.414 179.830,104.208 179.862,105.001 C179.336,109.273 178.943,114.740 178.386,118.709 C178.222,119.845 178.417,121.261 178.549,122.158 C178.843,124.168 178.640,126.255 179.042,128.316 C179.567,131.008 180.283,135.646 179.945,138.246 C179.508,141.529 179.889,143.060 178.222,145.226 C175.740,148.444 168.399,146.259 164.544,145.469 C162.646,145.086 160.704,145.513 158.651,145.142 C156.925,144.835 154.092,144.958 152.098,145.226 C150.081,145.357 148.060,145.501 146.039,145.636 C142.323,146.350 138.905,146.805 135.225,147.523 C132.587,148.041 128.270,146.406 126.217,145.880 C123.329,145.150 117.878,145.477 115.164,145.800 C111.261,146.263 111.046,147.642 109.837,150.725 C109.069,152.691 108.854,155.734 106.161,155.730 C106.590,153.022 107.028,150.315 107.466,147.607 C107.780,146.725 108.369,145.788 108.611,144.899 C109.542,141.517 110.147,138.366 111.480,135.295 C115.427,126.186 121.960,119.395 128.755,113.125 C131.982,110.162 135.849,107.088 139.570,104.674 C140.576,103.574 141.587,102.481 142.597,101.392 C143.743,100.283 145.112,99.346 146.118,98.110 C147.097,96.897 147.638,95.322 148.331,93.839 C149.946,90.373 151.804,86.935 153.571,83.493 C155.934,78.895 158.783,74.404 161.763,70.360 C163.024,68.646 165.797,68.007 165.363,65.104 C164.874,64.869 164.552,64.398 163.971,64.207 C162.546,63.728 160.641,64.279 159.145,64.207 C153.889,63.944 149.823,66.580 146.528,68.801 C143.516,70.835 140.831,73.200 137.851,75.206 C136.593,75.972 135.336,76.733 134.083,77.499 C132.698,79.262 131.759,81.639 130.474,83.493 C129.165,85.392 127.212,86.839 125.318,88.175 C121.327,90.983 115.829,94.868 108.369,93.344 C103.025,92.259 99.337,90.632 95.430,88.255 C94.316,87.581 93.286,86.580 92.231,85.791 C91.821,85.360 91.412,84.917 91.006,84.483 C90.321,84.315 89.641,84.151 88.957,83.988 C87.413,83.549 85.873,83.198 84.290,82.672 C80.096,81.280 76.157,79.517 72.417,77.423 C62.276,71.736 53.507,64.641 43.588,58.699 C37.600,55.122 31.660,51.493 24.916,48.605 C22.728,47.668 19.573,45.742 16.565,46.555 C16.234,47.034 15.992,47.261 15.992,48.115 C18.323,51.265 21.415,53.203 24.836,55.257 C26.563,56.294 28.298,57.590 29.997,58.699 C31.879,59.939 33.916,60.789 35.889,61.906 C38.587,63.429 41.240,65.339 43.835,66.998 C46.122,68.454 48.211,69.990 50.304,71.593 C50.833,71.996 52.253,72.925 52.023,73.726 C51.907,73.958 52.011,73.846 51.780,73.970 C50.873,74.448 49.381,73.607 48.832,73.320 C46.357,72.020 43.994,70.999 41.622,69.706 C33.076,65.028 24.745,59.604 17.217,53.862 C15.319,52.414 13.318,50.763 12.387,48.362 C12.140,47.728 11.671,46.408 12.061,45.654 C12.375,44.773 13.091,44.370 13.863,43.927 C17.571,41.813 21.888,44.354 25.572,44.422 C25.799,37.283 27.255,30.220 26.145,22.830 C25.958,21.578 26.125,19.934 25.899,18.806 C25.636,17.462 25.027,16.026 24.669,14.626 C23.750,11.021 24.200,3.085 25.405,0.010 C27.729,0.229 30.048,0.448 32.372,0.668 C33.888,0.963 35.662,0.744 37.365,1.079 C38.599,1.322 40.162,1.386 41.380,1.322 C41.897,1.378 42.414,1.434 42.935,1.489 C42.935,1.489 47.929,1.489 47.929,1.489 C50.189,1.605 53.487,1.003 55.548,0.588 C56.666,0.504 57.784,0.417 58.906,0.337 C60.485,0.042 65.451,0.205 67.090,0.504 C69.489,0.931 71.908,0.389 74.546,0.915 C79.269,1.378 83.987,1.844 88.710,2.307 C96.361,2.387 103.344,1.170 110.414,0.337 C113.760,-0.054 118.315,0.341 121.057,0.831 C122.688,1.122 124.614,1.003 126.217,1.322 C129.647,2.008 133.574,1.449 136.212,1.816 C138.603,2.147 142.673,1.270 144.400,0.831 C145.120,0.652 145.876,0.325 146.854,0.504 C153.105,1.661 159.714,3.037 166.509,1.653 C167.683,1.597 168.857,1.545 170.034,1.489 C172.187,1.035 173.874,0.704 175.764,0.094 C176.945,-0.289 178.393,0.389 178.879,0.831 C180.351,2.191 180.458,7.519 179.945,10.271 C179.667,12.955 179.400,15.631 179.122,18.319 C179.094,19.304 179.066,20.285 179.042,21.271 C178.736,22.942 178.947,25.346 178.795,26.770 C178.652,28.106 178.513,29.087 178.712,30.467 C179.058,32.840 178.596,36.374 179.289,39.744 C179.977,43.090 180.442,46.647 181.167,49.841 C181.222,51.509 181.282,53.176 181.334,54.847 C181.525,55.975 181.294,58.891 181.087,59.935 C181.087,59.935 181.087,61.415 181.087,61.415 ZM99.114,86.289 C101.080,87.354 103.439,88.363 105.663,88.997 C113.243,91.155 118.069,88.490 122.863,85.547 C124.455,84.570 125.720,83.354 126.874,81.934 C127.204,81.523 128.059,80.757 127.940,80.211 C126.953,80.857 125.664,80.989 124.498,81.443 C120.675,82.935 116.282,83.434 111.723,84.315 C109.952,84.454 108.174,84.590 106.403,84.726 C103.726,84.698 101.048,84.674 98.374,84.642 C97.865,84.666 96.795,84.335 96.329,84.483 C96.146,84.594 96.285,84.466 96.166,84.642 C97.248,84.881 98.215,85.795 99.114,86.289 ZM95.179,80.538 C95.701,80.594 96.218,80.650 96.735,80.706 C99.234,81.217 101.848,80.865 104.434,81.112 C109.626,81.615 119.235,80.099 123.762,77.918 C125.608,77.021 127.450,76.008 129.249,75.122 C129.249,75.122 129.249,74.955 129.249,74.955 C127.013,74.684 124.773,74.412 122.533,74.137 C121.415,74.105 120.293,74.081 119.175,74.053 C118.164,74.277 117.158,74.492 116.147,74.711 C114.719,75.294 113.664,76.259 111.806,76.518 C109.960,76.773 108.098,75.760 106.403,75.453 C103.622,74.943 99.230,77.898 97.638,78.895 C96.878,79.378 95.549,79.772 95.100,80.538 C95.100,80.538 95.179,80.538 95.179,80.538 ZM172.163,27.265 C172.398,24.453 172.310,20.995 172.895,18.068 C172.982,17.111 173.062,16.154 173.142,15.197 C173.691,12.433 174.240,9.669 174.781,6.905 C174.618,6.877 174.455,6.849 174.291,6.825 C173.026,7.631 171.021,7.444 169.374,7.807 C165.514,8.668 157.684,9.091 153.817,7.970 C152.532,7.591 151.251,7.208 149.966,6.825 C148.876,6.375 147.754,5.673 145.876,6.084 C144.527,6.383 142.510,6.399 140.962,6.825 C137.600,7.751 132.694,8.812 128.755,8.381 C125.732,8.054 123.412,7.029 120.898,6.331 C119.394,6.112 117.894,5.892 116.394,5.673 C115.387,5.701 114.373,5.733 113.362,5.757 C112.268,5.840 111.178,5.920 110.084,6.000 C107.358,6.582 104.454,7.157 101.895,7.890 C98.812,8.780 95.561,8.704 92.152,9.370 C90.477,9.697 87.803,9.390 86.581,9.206 C86.581,9.206 82.818,9.206 82.818,9.206 C78.990,8.512 75.950,8.820 72.330,7.970 C69.875,7.452 67.420,6.929 64.965,6.411 C63.593,6.032 62.005,5.529 60.378,5.513 C59.129,6.706 55.775,7.073 53.662,7.484 C45.852,8.987 37.465,6.558 29.913,6.411 C29.889,6.606 29.857,6.798 29.830,6.989 C29.969,7.619 30.100,8.245 30.239,8.875 C31.158,11.878 31.349,15.073 32.042,18.563 C33.367,25.251 32.953,32.569 33.271,39.249 C33.076,41.905 32.889,44.557 32.698,47.213 C35.161,48.673 37.974,49.479 40.473,50.823 C42.167,51.863 43.862,52.904 45.553,53.945 C49.731,56.474 53.948,58.731 57.756,61.575 C59.857,62.755 61.961,63.932 64.062,65.104 C71.789,69.651 78.942,75.601 88.551,78.161 C89.442,78.397 92.096,77.060 92.808,76.761 C94.634,76.083 96.465,75.397 98.295,74.711 C100.014,74.045 101.828,73.116 103.698,72.742 C105.417,72.394 107.955,72.885 109.515,73.064 C109.924,73.124 110.334,73.176 110.740,73.236 C112.733,72.829 114.325,71.641 116.231,71.018 C117.357,70.644 119.298,70.711 120.408,70.528 C122.123,70.660 123.846,70.799 125.561,70.935 C127.339,71.046 129.114,71.154 130.884,71.262 C131.736,71.413 133.621,71.760 134.652,71.429 C136.247,70.919 138.833,68.825 140.306,67.900 C143.958,65.587 147.670,63.445 151.935,61.742 C155.751,60.215 164.942,59.273 168.638,61.575 C169.744,62.261 170.957,62.572 171.339,63.955 C171.976,66.217 169.509,67.705 168.148,68.801 C166.179,70.384 164.400,72.753 163.151,75.043 C162.610,76.243 162.061,77.447 161.516,78.648 C161.027,79.509 160.247,80.355 159.797,81.196 C159.005,83.083 158.214,84.973 157.422,86.859 C154.358,92.981 151.450,98.692 147.185,103.522 C146.377,104.443 145.609,105.556 144.646,106.314 C141.933,108.455 139.239,110.784 136.705,113.125 C135.257,114.278 133.808,115.426 132.360,116.575 C127.713,120.204 122.891,125.393 119.752,130.529 C118.240,132.998 115.300,137.568 114.997,140.958 C114.997,140.958 115.164,140.958 115.164,140.958 C116.056,141.285 117.396,140.671 118.192,140.464 C119.907,140.025 122.187,139.610 124.088,139.973 C127.558,140.627 131.294,141.577 134.819,141.860 C137.811,142.099 141.945,140.603 144.646,139.973 C147.925,139.204 152.130,139.666 154.720,139.395 C155.946,139.507 157.179,139.618 158.405,139.730 C160.668,139.917 162.936,140.105 165.200,140.300 C167.615,140.771 170.914,141.154 173.229,140.707 C173.229,140.707 173.229,139.730 173.229,139.730 C172.537,138.326 172.752,135.036 172.406,133.074 C172.099,131.299 171.813,128.799 171.916,126.593 C172.067,123.363 171.463,119.335 171.916,116.084 C172.453,112.216 173.536,108.918 174.041,104.922 C174.200,103.669 173.774,100.850 173.472,99.418 C172.895,96.714 172.943,94.497 172.242,91.785 C171.761,89.918 171.375,87.334 171.670,85.053 C171.833,83.414 172.000,81.770 172.163,80.131 C173.742,74.293 175.417,67.928 175.107,61.658 C175.195,58.591 175.274,55.529 175.354,52.466 C175.028,50.320 174.833,46.894 174.208,44.422 C173.054,39.851 171.693,32.864 172.163,27.265 ZM145.056,55.747 C142.947,55.153 140.862,55.097 138.992,54.188 C138.041,53.725 137.031,52.780 136.291,52.054 C135.821,51.591 135.189,51.300 134.739,50.822 C132.750,48.724 131.600,46.479 130.235,43.679 C128.134,39.384 127.729,33.717 129.738,28.739 C132.380,22.219 138.678,18.590 145.135,15.854 C146.854,15.335 148.581,14.813 150.296,14.294 C151.091,14.075 152.221,14.163 152.834,13.720 C152.834,13.720 153.160,13.720 153.160,13.720 C153.192,13.852 153.216,13.995 153.244,14.131 C152.289,15.646 152.249,17.983 151.688,19.794 C149.305,27.471 148.696,36.528 152.178,43.520 C153.598,46.359 155.380,48.931 157.091,51.480 C157.736,52.433 159.220,53.382 159.467,54.599 C157.791,55.073 156.033,55.787 154.227,56.242 C151.557,56.908 147.375,56.401 145.056,55.747 ZM151.199,49.179 C149.699,46.937 148.211,44.449 147.184,41.793 C145.458,37.330 144.487,30.470 145.792,24.967 C146.257,23.160 146.719,21.353 147.184,19.547 C147.101,19.519 147.021,19.495 146.938,19.467 C145.696,20.205 144.264,20.508 143.086,21.270 C137.910,24.652 134.588,29.230 134.651,37.689 C134.667,39.360 135.069,41.167 135.638,42.614 C136.410,44.592 137.512,46.483 138.750,48.034 C140.942,50.782 144.069,51.879 148.251,52.708 C149.703,53.003 152.683,52.581 153.160,51.811 C153.057,50.989 151.716,49.952 151.199,49.179 ZM92.316,34.981 C91.624,35.670 90.120,36.408 90.020,37.605 C90.740,38.259 90.959,39.387 91.496,40.233 C92.674,42.087 94.942,44.991 95.017,47.703 C92.527,48.245 90.048,49.274 87.733,50.084 C86.981,50.347 85.711,50.415 85.274,50.989 C85.218,52.110 85.162,53.234 85.111,54.355 C84.645,56.309 83.766,58.068 83.638,60.345 C83.392,60.473 83.169,60.521 82.735,60.509 C80.646,59.368 78.689,58.499 76.676,57.394 C75.769,56.891 75.017,55.906 73.807,55.747 C72.645,57.214 70.553,58.311 69.061,59.444 C68.336,59.986 67.616,61.067 66.602,61.246 C65.456,58.921 64.306,56.596 63.160,54.267 C62.762,53.390 62.440,51.990 61.605,51.563 C61.008,51.252 60.049,51.479 59.233,51.400 C56.369,51.116 53.389,52.772 50.794,53.119 C50.771,53.011 50.743,52.903 50.715,52.796 C51.725,48.305 52.732,43.818 53.743,39.332 C53.408,38.466 52.601,37.904 52.107,37.194 C50.600,35.056 47.806,31.307 47.763,28.005 C47.763,28.005 47.930,28.005 47.930,28.005 C50.715,27.156 53.500,26.306 56.281,25.461 C56.337,24.500 56.392,23.543 56.444,22.585 C56.826,20.998 57.212,19.411 57.590,17.824 C57.729,17.002 57.869,16.184 58.000,15.363 C60.431,16.591 62.858,17.824 65.293,19.060 C66.522,16.938 68.945,15.072 70.942,13.720 C71.631,13.249 72.454,12.858 72.988,12.240 C72.988,12.240 73.314,12.240 73.314,12.240 C74.301,14.214 75.279,16.184 76.266,18.155 C76.596,18.829 76.867,20.356 77.659,20.535 C78.832,19.180 82.099,18.262 83.798,17.329 C84.438,16.978 84.936,16.228 85.680,16.017 C85.711,16.759 85.739,17.497 85.763,18.234 C86.002,18.797 85.791,19.981 85.847,20.452 C85.954,21.381 86.061,22.310 86.173,23.239 C86.439,24.591 85.851,25.413 87.565,25.377 C88.301,25.126 89.988,25.724 90.677,25.947 C93.108,26.749 95.364,27.387 97.803,28.249 C97.775,28.304 97.751,28.360 97.719,28.416 C97.150,30.251 93.689,33.617 92.316,34.981 ZM82.079,29.397 C81.916,28.935 81.753,28.468 81.585,28.005 C81.279,26.829 81.888,25.521 82.079,24.719 C82.198,24.225 82.119,23.227 82.162,22.669 C81.991,22.581 82.007,22.561 81.753,22.502 C80.750,23.582 78.247,24.675 76.755,25.293 C76.302,25.481 75.323,25.967 74.790,25.788 C72.912,25.118 72.816,21.780 71.348,20.863 C71.348,20.863 71.348,20.946 71.348,20.946 C70.167,21.931 68.535,25.333 66.765,25.461 C66.108,25.241 65.456,25.018 64.799,24.799 C64.016,24.440 63.299,23.894 62.587,23.491 C62.337,23.347 61.453,22.649 61.358,22.753 C61.306,23.295 61.250,23.842 61.199,24.388 C60.725,26.262 60.252,27.487 60.296,29.808 C60.296,29.808 60.128,29.808 60.128,29.808 C58.923,30.390 54.590,30.637 54.152,31.615 C55.076,32.308 58.056,37.409 58.330,38.753 C58.354,39.443 57.690,40.584 57.431,41.302 C56.607,43.547 55.573,45.832 55.298,48.444 C58.127,48.456 60.829,47.160 63.900,47.132 C64.879,49.071 65.866,51.013 66.848,52.959 C67.139,53.597 67.262,54.837 67.994,55.013 C69.116,53.278 70.652,51.695 72.088,50.251 C72.303,50.032 73.429,48.819 73.644,49.019 C74.161,49.621 74.682,50.219 75.200,50.825 C76.676,51.994 78.216,53.007 79.787,54.108 C80.197,54.395 80.368,54.857 80.933,55.013 C80.933,55.013 80.933,54.267 80.933,54.267 C80.877,51.866 80.822,49.457 80.770,47.049 C80.742,46.582 80.714,46.115 80.686,45.653 C82.226,44.552 87.386,46.068 88.878,45.569 C88.906,45.513 88.930,45.457 88.958,45.409 C87.621,42.749 86.280,40.097 84.943,37.445 C84.756,36.763 85.130,35.786 85.433,35.308 C86.611,33.469 89.177,32.460 90.020,30.382 C87.374,30.055 84.725,29.724 82.079,29.397 ZM28.275,69.048 C32.830,72.031 37.847,74.356 42.602,77.092 C45.908,78.707 49.215,80.318 52.517,81.933 C53.209,82.288 55.553,82.954 55.791,83.576 C48.447,84.757 42.690,82.344 37.446,79.636 C32.365,77.012 27.149,74.491 22.458,71.428 C19.120,69.247 16.032,66.707 12.877,64.369 C9.973,62.212 7.196,59.779 5.099,56.816 C4.295,55.679 2.990,53.944 3.790,52.385 C5.011,52.529 5.807,53.833 6.655,54.431 C9.472,56.429 12.177,58.702 15.089,60.509 C19.518,63.257 23.898,66.176 28.275,69.048 ZM16.396,75.284 C29.661,83.807 43.511,92.242 59.068,98.435 C59.096,98.515 59.119,98.595 59.147,98.679 C52.392,100.166 46.439,97.729 41.215,95.480 C29.968,90.638 19.376,84.832 11.156,76.927 C8.248,74.128 5.105,71.815 2.563,68.640 C1.815,67.707 -0.004,65.948 0.923,64.448 C0.923,64.448 1.166,64.448 1.166,64.448 C2.594,66.060 4.791,67.057 6.489,68.389 C9.629,70.857 12.987,73.091 16.396,75.284 ZM6.817,81.852 C12.144,86.893 17.913,91.272 24.180,95.400 C28.934,98.531 34.552,100.501 39.983,102.953 C42.999,104.309 46.246,104.940 49.242,106.236 C57.541,109.821 65.562,114.232 70.368,121.339 C72.214,124.067 73.822,127.014 74.789,130.691 C75.246,132.430 74.960,134.200 75.198,135.784 C75.469,137.582 75.644,140.438 75.282,142.352 C74.598,145.969 73.897,149.252 73.153,152.287 C73.153,152.287 72.250,152.287 72.250,152.287 C71.001,150.751 71.415,149.654 71.025,147.521 C70.894,146.831 71.112,146.097 70.615,145.802 C69.274,145.579 67.937,145.355 66.601,145.144 C63.716,144.522 60.298,143.788 57.183,144.486 C55.333,144.905 54.131,145.750 52.023,146.045 C50.789,146.221 48.967,145.646 47.929,145.391 C45.577,144.801 42.024,144.318 39.904,144.733 C38.646,144.948 37.393,145.172 36.136,145.391 C34.409,145.934 31.373,147.218 29.177,146.372 C25.485,144.956 25.604,139.640 25.000,135.126 C25.000,135.126 25.000,132.502 25.000,132.502 C24.824,131.469 24.936,130.507 25.000,129.136 C25.143,126.049 24.824,123.269 25.326,120.517 C25.553,119.273 25.302,117.773 25.083,116.657 C24.972,114.742 24.864,112.828 24.753,110.914 C24.637,109.187 25.135,106.559 25.083,104.676 C25.298,103.687 25.517,102.698 25.736,101.717 C17.850,96.979 9.805,91.619 4.279,84.480 C2.814,82.586 -0.575,78.869 0.101,75.368 C0.988,75.563 1.458,76.660 2.066,77.174 C3.765,78.598 5.214,80.333 6.817,81.852 ZM31.143,140.625 C35.133,137.690 43.671,138.831 48.748,139.808 C51.386,140.314 54.692,139.233 57.999,139.066 C59.638,138.986 61.504,139.313 63.079,139.557 C65.315,139.780 67.555,139.999 69.795,140.219 C69.819,140.191 69.847,140.163 69.875,140.135 C71.801,126.117 61.464,118.280 52.186,113.701 C49.389,112.326 46.460,111.675 43.671,110.331 C39.629,108.393 35.459,106.284 31.222,104.676 C31.019,105.494 31.405,106.934 31.552,107.787 C31.604,109.243 31.660,110.690 31.716,112.142 C31.739,114.168 31.771,116.194 31.795,118.212 C31.525,123.636 31.254,129.056 30.975,134.468 C30.924,134.743 30.868,135.022 30.812,135.293 C30.788,137.072 30.757,138.851 30.733,140.625 C30.733,140.625 31.143,140.625 31.143,140.625 ZM223.107,122.444 C223.107,124.801 221.587,126.293 219.546,126.811 C222.311,127.090 224.145,128.722 224.145,131.908 C224.145,137.041 220.585,138.564 216.709,138.564 C216.709,138.564 206.751,138.564 206.751,138.564 C206.751,138.564 206.751,116.139 206.751,116.139 C206.751,116.139 215.571,116.139 215.571,116.139 C219.650,116.139 223.107,117.627 223.107,122.444 ZM212.007,134.508 C212.007,134.508 216.502,134.508 216.502,134.508 C217.577,134.508 218.786,133.747 218.786,131.908 C218.786,129.862 217.609,129.033 216.124,129.033 C216.124,129.033 212.007,129.033 212.007,129.033 C212.007,129.033 212.007,134.508 212.007,134.508 ZM212.007,125.013 C212.007,125.013 216.053,125.013 216.053,125.013 C217.127,125.013 217.784,124.075 217.784,122.480 C217.784,121.786 217.505,120.195 215.571,120.195 C215.571,120.195 212.007,120.195 212.007,120.195 C212.007,120.195 212.007,125.013 212.007,125.013 ZM231.469,93.799 C236.065,93.799 237.505,96.958 237.505,100.930 C237.505,104.906 236.037,108.216 231.469,108.216 C226.906,108.216 225.406,104.934 225.406,100.930 C225.406,97.137 226.906,93.799 231.469,93.799 ZM231.469,106.681 C234.593,106.681 235.464,104.304 235.464,100.930 C235.464,97.560 234.533,95.331 231.469,95.331 C228.589,95.331 227.447,97.560 227.447,100.930 C227.447,104.212 228.378,106.681 231.469,106.681 ZM235.592,122.205 C241.572,122.205 243.788,125.946 243.788,130.556 C243.788,135.099 241.469,139.083 235.592,139.083 C229.680,139.083 227.360,135.131 227.360,130.556 C227.360,126.157 229.712,122.205 235.592,122.205 ZM235.592,135.477 C237.422,135.477 238.946,134.405 238.946,130.556 C238.946,126.676 237.768,125.810 235.592,125.810 C233.515,125.810 232.202,126.676 232.202,130.556 C232.202,134.022 233.448,135.477 235.592,135.477 ZM243.573,113.301 C243.573,113.301 241.623,113.301 241.623,113.301 C241.623,113.301 241.623,98.254 241.623,98.254 C241.623,96.746 241.532,95.602 241.352,94.130 C241.352,94.130 243.063,94.130 243.063,94.130 C243.063,94.130 243.545,96.204 243.545,96.204 C244.205,95.151 245.645,93.799 247.356,93.799 C251.530,93.799 252.851,97.169 252.851,101.081 C252.851,104.934 251.140,108.216 247.328,108.216 C245.554,108.216 244.325,107.343 243.573,106.318 C243.573,106.318 243.573,113.301 243.573,113.301 ZM247.205,106.681 C249.278,106.681 250.810,105.054 250.810,101.022 C250.810,97.468 249.759,95.331 246.966,95.331 C245.315,95.331 244.022,96.898 243.545,98.254 C243.545,98.254 243.545,104.603 243.545,104.603 C244.233,105.536 245.073,106.681 247.205,106.681 ZM252.052,124.905 C252.605,123.972 253.918,122.205 255.509,122.205 C256.894,122.205 257.897,122.412 258.585,122.620 C258.585,122.620 256.997,126.468 256.997,126.468 C256.409,125.946 255.820,125.810 255.024,125.810 C253.297,125.810 252.502,128.271 252.155,129.172 C252.155,129.172 252.155,138.564 252.155,138.564 C252.155,138.564 247.417,138.564 247.417,138.564 C247.417,138.564 247.417,126.261 247.417,126.261 C247.417,124.702 247.071,123.521 246.967,122.723 C246.967,122.723 251.360,122.723 251.360,122.723 C251.360,122.723 252.052,124.905 252.052,124.905 ZM257.025,94.130 C257.025,94.130 258.978,94.130 258.978,94.130 C258.978,94.130 258.978,107.885 258.978,107.885 C258.978,107.885 257.025,107.885 257.025,107.885 C257.025,107.885 257.025,94.130 257.025,94.130 ZM256.909,88.411 C256.909,88.411 259.070,88.411 259.070,88.411 C259.070,88.411 259.070,90.760 259.070,90.760 C259.070,90.760 256.909,90.760 256.909,90.760 C256.909,90.760 256.909,88.411 256.909,88.411 ZM267.091,122.237 C268.926,122.237 270.242,123.381 271.209,124.666 C271.209,124.666 271.209,115.792 271.209,115.792 C271.209,115.792 275.944,115.792 275.944,115.792 C275.944,115.792 275.944,133.711 275.944,133.711 C275.944,135.721 276.155,136.726 276.394,138.564 C276.394,138.564 272.005,138.564 272.005,138.564 C272.005,138.564 271.313,137.109 271.313,137.109 C270.967,137.767 269.825,139.051 267.819,139.051 C262.357,139.051 260.523,135.099 260.523,130.556 C260.523,126.189 262.492,122.237 267.091,122.237 ZM268.651,135.410 C269.861,135.410 270.688,134.369 271.277,132.949 C271.277,132.949 271.277,129.100 271.277,129.100 C270.274,127.437 269.447,125.878 268.166,125.878 C266.678,125.878 265.365,126.500 265.365,130.628 C265.365,134.819 266.678,135.410 268.651,135.410 ZM273.397,104.272 C273.397,101.472 274.925,99.518 280.753,99.518 C280.753,99.518 282.074,99.518 282.074,99.518 C282.074,99.518 282.074,98.465 282.074,98.465 C282.074,96.627 281.442,95.331 279.341,95.331 C277.447,95.331 275.947,95.905 274.654,96.535 C274.654,96.535 273.966,94.852 273.966,94.852 C275.557,94.250 277.300,93.799 279.369,93.799 C282.194,93.799 284.056,95.211 284.056,98.222 C284.056,98.222 284.056,103.670 284.056,103.670 C284.056,104.754 284.294,106.198 284.473,107.885 C284.473,107.885 282.735,107.885 282.735,107.885 C282.703,107.674 282.253,106.561 282.225,106.258 C281.533,107.251 280.121,108.216 278.378,108.216 C275.617,108.216 273.397,107.040 273.397,104.272 ZM278.589,106.681 C280.180,106.681 281.473,105.959 282.102,104.846 C282.102,104.846 282.102,100.994 282.102,100.994 C282.102,100.994 281.171,100.994 281.171,100.994 C276.846,100.994 275.466,101.987 275.466,104.212 C275.466,105.748 276.608,106.681 278.589,106.681 ZM287.426,122.237 C293.442,122.237 295.380,125.427 295.380,132.670 C295.380,132.670 284.522,132.670 284.522,132.670 C284.936,134.788 286.320,135.549 287.944,135.549 C289.328,135.549 291.162,135.027 292.821,134.197 C292.821,134.197 294.377,137.803 294.377,137.803 C292.440,138.668 289.953,139.051 287.669,139.051 C282.377,139.051 279.576,135.202 279.576,130.799 C279.576,127.126 281.271,122.237 287.426,122.237 ZM290.641,129.172 C290.398,126.536 289.018,125.878 287.462,125.878 C286.770,125.878 284.661,126.050 284.558,129.172 C284.558,129.172 290.641,129.172 290.641,129.172 ZM293.012,108.216 C289.498,108.216 288.388,105.959 288.388,102.796 C288.388,102.796 288.388,94.130 288.388,94.130 C288.388,94.130 290.342,94.130 290.342,94.130 C290.342,94.130 290.342,102.677 290.342,102.677 C290.342,104.782 290.700,106.681 293.282,106.681 C295.085,106.681 296.226,105.026 296.708,103.761 C296.708,103.761 296.708,94.130 296.708,94.130 C296.708,94.130 298.657,94.130 298.657,94.130 C298.657,94.130 298.657,104.966 298.657,104.966 C298.657,106.110 298.868,106.800 298.960,107.885 C298.960,107.885 297.249,107.885 297.249,107.885 C297.249,107.885 296.795,105.839 296.795,105.839 C296.254,106.469 295.176,108.216 293.012,108.216 ZM307.065,128.442 C307.065,128.442 308.279,128.442 308.279,128.442 C308.279,128.442 308.279,127.924 308.279,127.924 C308.279,127.162 308.279,125.878 306.480,125.878 C304.300,125.878 302.020,126.536 300.496,127.266 C300.496,127.266 298.869,123.381 298.869,123.381 C301.224,122.584 304.264,122.237 306.791,122.237 C310.419,122.237 313.049,123.833 313.049,127.298 C313.049,127.298 313.049,133.711 313.049,133.711 C313.049,134.959 313.534,136.865 313.741,138.564 C313.741,138.564 309.210,138.564 309.210,138.564 C309.178,138.564 308.589,137.041 308.589,137.109 C307.690,137.803 306.238,139.051 304.646,139.051 C300.222,139.051 298.284,137.352 298.284,134.405 C298.284,131.182 300.325,128.442 307.065,128.442 ZM305.613,135.410 C306.620,135.410 307.726,134.337 308.310,133.675 C308.310,133.675 308.310,131.840 308.310,131.840 C308.310,131.840 307.551,131.840 307.551,131.840 C304.439,131.840 303.194,132.638 303.194,134.197 C303.194,135.342 304.578,135.410 305.613,135.410 ZM322.594,133.017 C322.594,134.094 322.662,135.477 324.424,135.477 C325.845,135.477 326.640,133.850 327.436,132.323 C327.436,132.323 327.436,122.723 327.436,122.723 C327.436,122.723 332.171,122.723 332.171,122.723 C332.171,122.723 332.171,135.202 332.171,135.202 C332.171,136.519 332.449,137.523 332.620,138.564 C332.620,138.564 328.228,138.564 328.228,138.564 C328.228,138.564 327.539,136.622 327.539,136.622 C326.847,137.280 325.638,139.083 323.561,139.083 C318.997,139.083 317.855,136.347 317.855,132.706 C317.855,132.706 317.855,122.723 317.855,122.723 C317.855,122.723 322.594,122.723 322.594,122.723 C322.594,122.723 322.594,133.017 322.594,133.017 ZM311.099,107.885 C311.099,107.885 307.466,102.286 307.466,102.286 C307.466,102.286 303.591,107.885 303.591,107.885 C303.591,107.885 301.458,107.885 301.458,107.885 C301.458,107.885 306.384,100.930 306.384,100.930 C306.384,100.930 301.793,94.130 301.793,94.130 C301.793,94.130 304.132,94.130 304.132,94.130 C304.132,94.130 307.586,99.394 307.586,99.394 C307.586,99.394 311.158,94.130 311.158,94.130 C311.158,94.130 313.231,94.130 313.231,94.130 C313.231,94.130 308.576,100.722 308.576,100.722 C308.576,100.722 313.470,107.885 313.470,107.885 C313.470,107.885 311.099,107.885 311.099,107.885 ZM270.560,107.885 C270.560,107.885 269.931,109.660 269.931,109.660 C266.597,108.998 264.914,107.163 264.914,104.543 C264.914,104.543 264.914,95.662 264.914,95.662 C264.914,95.662 262.841,95.662 262.841,95.662 C262.841,95.662 262.841,94.130 262.841,94.130 C262.841,94.130 264.914,94.130 264.914,94.130 C264.914,94.130 264.914,90.609 264.914,90.609 C264.914,90.609 266.868,90.609 266.868,90.609 C266.868,90.609 266.868,94.130 266.868,94.130 C266.868,94.130 270.019,94.130 270.019,94.130 C270.019,94.130 270.019,95.662 270.019,95.662 C270.019,95.662 266.868,95.662 266.868,95.662 C266.868,95.662 266.868,104.575 266.868,104.575 C266.868,106.681 268.097,107.522 270.560,107.885 ZM235.014,91.721 C235.014,91.721 233.391,91.721 233.391,91.721 C233.391,91.721 231.529,89.612 231.529,89.612 C231.529,89.612 229.607,91.721 229.607,91.721 C229.607,91.721 227.988,91.721 227.988,91.721 C227.988,91.721 230.662,88.411 230.662,88.411 C230.662,88.411 232.400,88.411 232.400,88.411 C232.400,88.411 235.014,91.721 235.014,91.721 ZM207.496,73.886 C207.496,73.886 349.996,73.886 349.996,73.886 C349.996,73.886 349.996,75.968 349.996,75.968 C349.996,75.968 207.496,75.968 207.496,75.968 C207.496,75.968 207.496,73.886 207.496,73.886 ZM207.589,107.885 C207.589,107.885 207.589,88.411 207.589,88.411 C207.589,88.411 209.782,88.411 209.782,88.411 C209.782,88.411 209.782,96.958 209.782,96.958 C209.782,96.958 218.941,96.958 218.941,96.958 C218.941,96.958 218.941,88.411 218.941,88.411 C218.941,88.411 221.133,88.411 221.133,88.411 C221.133,88.411 221.133,107.885 221.133,107.885 C221.133,107.885 218.941,107.885 218.941,107.885 C218.941,107.885 218.941,98.704 218.941,98.704 C218.941,98.704 209.782,98.704 209.782,98.704 C209.782,98.704 209.782,107.885 209.782,107.885 C209.782,107.885 207.589,107.885 207.589,107.885 ZM329.993,108.216 C325.669,108.216 324.197,104.874 324.197,100.930 C324.197,97.077 326.090,93.799 329.691,93.799 C331.525,93.799 332.846,95.063 333.475,96.116 C333.475,96.116 333.475,88.108 333.475,88.108 C333.475,88.108 335.428,88.108 335.428,88.108 C335.428,88.108 335.428,103.670 335.428,103.670 C335.428,105.417 335.548,106.170 335.727,107.885 C335.727,107.885 334.016,107.885 334.016,107.885 C334.016,107.885 333.566,106.258 333.566,106.258 C332.934,107.223 331.672,108.216 329.993,108.216 ZM333.538,98.282 C333.085,97.321 332.154,95.331 329.962,95.331 C327.948,95.331 326.238,96.958 326.238,100.994 C326.238,104.635 327.379,106.681 330.173,106.681 C331.585,106.681 332.727,105.987 333.538,104.575 C333.538,104.575 333.538,98.282 333.538,98.282 Z" id="path-3" class="cls-5" fill-rule="evenodd"/>
  </g>
</svg>
